<svg xmlns="http://www.w3.org/2000/svg" version="1.1" xmlns:xlink="http://www.w3.org/1999/xlink" viewBox="0 0 200 200" width="200" height="200"><rect width="200" height="200" fill="url('#gradient')"></rect><defs><linearGradient id="gradient" gradientTransform="rotate(45 0.5 0.5)"><stop offset="0%" stop-color="#2563eb"></stop><stop offset="100%" stop-color="#2563eb"></stop></linearGradient></defs><g><g fill="#ffffff" transform="matrix(2.2156725146198832,0,0,2.2156725146198832,24.613304639364543,116.39831989444488)" stroke="#ffffff" stroke-width="0"><path d="M8.41-3.78L8.41-3.78Q8.41-4.53 7.88-4.95Q7.34-5.37 6.01-5.82Q4.67-6.27 3.82-6.69L3.82-6.69Q1.05-8.05 1.05-10.42L1.05-10.42Q1.05-11.60 1.74-12.50Q2.43-13.41 3.69-13.91Q4.95-14.41 6.52-14.41L6.52-14.41Q8.06-14.41 9.27-13.87Q10.49-13.32 11.16-12.31Q11.84-11.30 11.84-10L11.84-10L8.42-10Q8.42-10.87 7.89-11.35Q7.35-11.83 6.45-11.83L6.45-11.83Q5.53-11.83 5.00-11.42Q4.46-11.02 4.46-10.39L4.46-10.39Q4.46-9.84 5.05-9.40Q5.63-8.96 7.11-8.48Q8.58-8.01 9.53-7.46L9.53-7.46Q11.84-6.13 11.84-3.80L11.84-3.80Q11.84-1.93 10.43-0.87Q9.02 0.20 6.57 0.20L6.57 0.20Q4.84 0.20 3.44-0.42Q2.04-1.04 1.33-2.12Q0.63-3.20 0.63-4.61L0.63-4.61L4.06-4.61Q4.06-3.47 4.65-2.92Q5.24-2.38 6.57-2.38L6.57-2.38Q7.42-2.38 7.92-2.75Q8.41-3.12 8.41-3.78ZM16.66-15L16.66-9.43Q17.71-10.76 19.36-10.76L19.36-10.76Q21.10-10.76 21.99-9.73Q22.88-8.69 22.90-6.67L22.90-6.67L22.90 0L19.60 0L19.60-6.59Q19.60-7.43 19.26-7.83Q18.92-8.22 18.10-8.22L18.10-8.22Q17.08-8.22 16.66-7.58L16.66-7.58L16.66 0L13.37 0L13.37-15L16.66-15ZM33.97 0L30.68 0Q30.51-0.32 30.37-0.95L30.37-0.95Q29.46 0.20 27.83 0.20L27.83 0.20Q26.34 0.20 25.29-0.71Q24.25-1.61 24.25-2.98L24.25-2.98Q24.25-4.70 25.52-5.58Q26.79-6.46 29.21-6.46L29.21-6.46L30.22-6.46L30.22-7.01Q30.22-8.47 28.96-8.47L28.96-8.47Q27.79-8.47 27.79-7.31L27.79-7.31L24.50-7.31Q24.50-8.85 25.81-9.80Q27.11-10.76 29.13-10.76Q31.15-10.76 32.32-9.78Q33.50-8.79 33.53-7.07L33.53-7.07L33.53-2.39Q33.54-0.94 33.97-0.17L33.97-0.17L33.97 0ZM28.62-2.15L28.62-2.15Q29.24-2.15 29.64-2.41Q30.05-2.68 30.22-3.01L30.22-3.01L30.22-4.70L29.27-4.70Q27.55-4.70 27.55-3.15L27.55-3.15Q27.55-2.71 27.85-2.43Q28.15-2.15 28.62-2.15ZM38.82-15L38.82 0L35.52 0L35.52-15L38.82-15ZM40.44-4.82L40.43-5.38Q40.43-6.96 41.04-8.20Q41.66-9.43 42.81-10.10Q43.96-10.76 45.52-10.76L45.52-10.76Q47.89-10.76 49.26-9.29Q50.63-7.82 50.63-5.29L50.63-5.29L50.63-5.18Q50.63-2.71 49.25-1.25Q47.88 0.20 45.54 0.20L45.54 0.20Q43.28 0.20 41.91-1.16Q40.55-2.51 40.44-4.82L40.44-4.82ZM43.73-5.77L43.72-5.18Q43.72-3.71 44.18-3.03Q44.64-2.34 45.54-2.34L45.54-2.34Q47.29-2.34 47.33-5.05L47.33-5.05L47.33-5.38Q47.33-8.22 45.52-8.22L45.52-8.22Q43.87-8.22 43.73-5.77L43.73-5.77ZM52.10-10.57L55.19-10.57L55.29-9.33Q56.42-10.76 58.31-10.76L58.31-10.76Q60.31-10.76 61.02-9.17L61.02-9.17Q62.09-10.76 64.12-10.76L64.12-10.76Q67.33-10.76 67.42-6.88L67.42-6.88L67.42 0L64.12 0L64.12-6.67Q64.12-7.48 63.85-7.85Q63.57-8.22 62.85-8.22L62.85-8.22Q61.88-8.22 61.40-7.35L61.40-7.35L61.41-7.22L61.41 0L58.11 0L58.11-6.65Q58.11-7.48 57.84-7.85Q57.58-8.22 56.84-8.22L56.84-8.22Q55.89-8.22 55.39-7.35L55.39-7.35L55.39 0L52.10 0L52.10-10.57Z"></path></g></g></svg>